Coordinates
version=1
nRows=21
nColumns=12
inDegrees=yes

Units are S.I. units (second, meters, Newtons, ...)
Angles are in degrees

endheader
time	SC_y	SC_z	SC_x	AC_y	AC_z	AC_x	GH_y	GH_z	GH_yy	EL_x	PS_y
       0.0              -47.92          30.56          21.54          40.86          1.844          2.762          157.4          85.67         -164.4          123.8          85.89
   0.02209              -47.92          30.56          21.54          40.87          1.843          2.761          157.4          85.67         -164.4          123.8           85.9
   0.04417              -47.92          30.56          21.54          40.87          1.842           2.76          157.4          85.67         -164.3          123.8          85.91
   0.06626              -47.93          30.55          21.54          40.87           1.84          2.759          157.4          85.67         -164.3          123.8          85.92
   0.08834              -47.93          30.55          21.54          40.88          1.839          2.759          157.4          85.67         -164.3          123.8          85.94
    0.1104              -47.93          30.55          21.54          40.88          1.837          2.758          157.4          85.67         -164.2          123.8          85.95
    0.1325              -47.93          30.55          21.55          40.88          1.835          2.757          157.4          85.67         -164.2          123.8          85.96
    0.1546              -47.93          30.55          21.55          40.89          1.834          2.756          157.4          85.66         -164.1          123.8          85.98
    0.1767              -47.93          30.55          21.55          40.89          1.832          2.754          157.4          85.66         -164.1          123.8          85.99
    0.1988              -47.93          30.55          21.55           40.9           1.83          2.753          157.4          85.66         -164.0          123.7          86.01
    0.2209              -47.94          30.55          21.56           40.9          1.827          2.752          157.4          85.66         -164.0          123.7          86.02
    0.2429              -47.94          30.55          21.56          40.91          1.825           2.75          157.4          85.66         -163.9          123.7          86.04
     0.265              -47.94          30.55          21.56          40.92          1.823          2.749          157.4          85.65         -163.9          123.7          86.06
    0.2871              -47.94          30.55          21.57          40.92           1.82          2.747          157.4          85.65         -163.8          123.7          86.08
    0.3092              -47.95          30.54          21.57          40.93          1.817          2.746          157.3          85.65         -163.7          123.7          86.11
    0.3313              -47.95          30.54          21.57          40.94          1.814          2.744          157.3          85.65         -163.6          123.7          86.13
    0.3534              -47.95          30.54          21.58          40.95           1.81          2.742          157.3          85.64         -163.5          123.6          86.16
    0.3755              -47.96          30.54          21.58          40.96          1.806          2.739          157.3          85.64         -163.4          123.6          86.19
    0.3976              -47.96          30.54          21.59          40.97          1.802          2.737          157.3          85.64         -163.3          123.6          86.22
    0.4196              -47.96          30.54          21.59          40.98          1.797          2.734          157.3          85.63         -163.2          123.6          86.26
    0.4417              -47.97          30.53           21.6          40.99          1.792          2.731          157.3          85.63         -163.1          123.5           86.3
